<svg version="1.2" xmlns="http://www.w3.org/2000/svg" viewBox="0 0 263 84" width="263" height="84">
	<title>logo(2)</title>
	<style>
		.s0 { fill: #808080 } 
	</style>
	<g id="#000000ff">
		<path class="s0" d="m27.9 8.6c3.9-0.2 7.8 0.6 11.2 2.4 4 2 7.3 5.2 9.4 9.1 2 3.5 3 7.6 2.8 11.6-0.4 4.4 1.2 8.9 4.2 12.1 2.9 3.1 7.1 5 11.3 5 1.3 0.1 2.6-0.2 4-0.3 4-0.4 7.9-2.7 10.1-6.1 1.7-2.5 2.5-5.6 2.3-8.7-0.1-0.8-0.2-1.6-0.1-2.3 0.2-2.1 1.3-4.1 3-5.3 1.5-1.2 3.5-1.7 5.4-1.5 2.2 0.2 4.2 1.4 5.4 3.1 1.2 1.6 1.6 3.8 1.3 5.7-0.5 2.8-2.6 5.2-5.2 6-4.1 1.1-7.5 4.3-9 8.2-1.1 2.9-1.2 6.2-0.3 9.2 0.9 2 1.2 4.3 1 6.5-0.4 3.9-2.6 7.6-5.9 9.8-2.6 1.8-5.9 2.6-9.1 2.3-4.1-0.5-7.9-2.9-10-6.5-1-1.6-1.6-3.4-1.9-5.3-0.8-4.5-3.8-8.5-7.8-10.7-4.1-2.4-9.2-2.7-13.6-0.9-4.3 1.5-9 1.6-13.4 0.4-3.8-1-7.2-3-10-5.8-2.9-3-5-6.8-5.9-10.9-1-4.3-0.6-8.9 1-13 1.6-4.1 4.5-7.7 8-10.1 3.5-2.4 7.6-3.8 11.8-4z"/>
		<path class="s0" d="m114 31.6c2.4-0.5 5.1-0.2 7.2 1.2 1.1 0.7 1.9 1.9 2.2 3.2-1.2 0.5-2.3 0.9-3.5 1.3-0.2-0.6-0.7-1.2-1.3-1.5-1.2-0.6-2.7-0.7-4.1-0.2-0.7 0.2-1.3 0.9-1.3 1.7 0.1 0.7 0.7 1.2 1.3 1.5 1.7 0.8 3.6 1.2 5.3 1.9 1.4 0.5 2.8 1.3 3.7 2.5 1 1.4 1.1 3.3 0.6 5-0.4 1.7-1.8 3.1-3.4 3.7-2 0.8-4.2 0.9-6.2 0.5-1.9-0.4-3.8-1.3-5.1-2.9-0.4-0.6-0.8-1.3-0.9-2q1.8-0.7 3.6-1.4c0.2 0.8 0.8 1.4 1.5 1.8 1.2 0.7 2.6 0.8 4 0.7 0.8-0.2 1.6-0.4 2.1-1 0.6-0.6 0.7-1.7 0.1-2.3-0.5-0.4-1.1-0.7-1.7-0.9-1.8-0.7-3.6-1.1-5.3-1.9-1.3-0.6-2.7-1.5-3.3-3-0.8-1.8-0.5-4 0.7-5.5 0.9-1.3 2.3-2 3.8-2.4z"/>
		<path class="s0" d="m220 33.1c1.7-1.5 4-1.8 6.2-1.7 2.1 0.2 4.3 1.1 5.5 2.9 0.4 0.6 0.6 1.1 0.7 1.7q-1.7 0.7-3.5 1.3c-0.1-0.6-0.6-1.1-1.1-1.4-1-0.6-2.3-0.7-3.5-0.5-0.6 0.1-1.3 0.3-1.7 0.8-0.5 0.6-0.5 1.5 0.1 2 0.7 0.6 1.6 0.9 2.4 1.2 2 0.7 4.1 1.2 5.9 2.4 1 0.6 1.8 1.6 2.2 2.7 0.7 2.3 0 5-1.9 6.5-1.8 1.4-4.2 1.8-6.4 1.6-2.2-0.2-4.4-1-5.9-2.5-0.7-0.7-1.3-1.6-1.5-2.6q1.8-0.7 3.6-1.4c0.3 0.7 0.8 1.4 1.4 1.8 1.2 0.7 2.6 0.8 3.9 0.7 0.9-0.1 1.8-0.4 2.4-1 0.5-0.6 0.6-1.7 0-2.3-0.6-0.5-1.4-0.8-2.1-1.1-1.8-0.6-3.7-1-5.4-1.9-1.1-0.7-2.2-1.5-2.8-2.8-0.9-2.1-0.3-4.9 1.5-6.4z"/>
		<path class="s0" d="m237.3 33c1.7-1.4 4-1.7 6.1-1.6 2.1 0.2 4.4 1.1 5.6 2.9 0.3 0.5 0.5 1.1 0.7 1.7q-1.8 0.7-3.5 1.3c-0.2-0.8-1-1.4-1.8-1.7-1.2-0.4-2.5-0.4-3.7 0-0.7 0.3-1.2 0.9-1.2 1.7 0 0.7 0.7 1.2 1.2 1.4 1.7 0.9 3.6 1.2 5.3 2 1.2 0.4 2.4 1 3.3 2 0.7 0.7 1.1 1.6 1.3 2.6 0.2 1.7-0.1 3.5-1.2 4.9-1.1 1.3-2.8 2-4.4 2.3-2.6 0.4-5.3 0-7.5-1.4-1.3-0.8-2.4-2.1-2.7-3.6 1.2-0.5 2.4-1 3.6-1.4 0.2 0.8 0.8 1.4 1.5 1.8 1.2 0.7 2.7 0.8 4 0.6 0.8-0.1 1.6-0.3 2.2-1 0.5-0.6 0.5-1.7-0.2-2.3-0.6-0.5-1.5-0.8-2.4-1.1-1.7-0.6-3.5-1-5.1-1.9-1.1-0.7-2.2-1.6-2.7-2.8-0.9-2.2-0.2-4.9 1.6-6.4z"/>
		<path class="s0" d="m126.8 31.6q6.8 0 13.6 0c0 1.2 0 2.5 0 3.8-3.2-0.1-6.5-0.1-9.7-0.1q0 2.4 0 4.7 4.4 0 8.8 0.1 0 1.8 0 3.7-4.4 0-8.8 0 0 2.4 0 4.7 4.9 0 9.9 0 0 1.9 0 3.8-6.9 0-13.8 0 0-10.4 0-20.7z"/>
		<path class="s0" d="m149.9 31.6q2.1 0 4.1 0 3.8 10.3 7.6 20.7-2.3 0-4.5 0c-0.6-1.6-1.1-3.1-1.6-4.7q-3.6 0-7.1 0c-0.5 1.6-1 3.1-1.6 4.7q-2.2 0-4.5 0 3.8-10.4 7.6-20.7zm-0.1 12.2q2.2 0 4.3 0-1-3.1-2.1-6.3-1.2 3.2-2.2 6.3z"/>
		<path class="s0" d="m163.5 31.6q1.8-0.1 3.7 0c2.1 3.4 4.3 6.9 6.5 10.4q3.2-5.2 6.5-10.4c1.2 0 2.5-0.1 3.7 0q0 10.3 0 20.7-2 0-4 0 0-6.5 0-13.1-2.5 4.1-5 8.2c-0.8 0-1.6 0-2.4 0-1.7-2.7-3.4-5.5-5.1-8.2q0 6.6 0 13.1c-1.3 0-2.6 0-3.9 0q0-10.4 0-20.7z"/>
		<path class="s0" d="m187.1 31.6q2 0 4-0.1c0 5.7 0 11.4 0 17q4.2 0 8.5 0 0 1.9 0 3.8-6.2 0-12.5 0 0-10.4 0-20.7z"/>
		<path class="s0" d="m202 31.5c4.5 0.1 9 0 13.6 0.1q0 1.9 0 3.7-4.9 0-9.7 0 0 2.4 0 4.7 4.4 0 8.8 0.1 0 1.8 0 3.7-4.4 0-8.8 0c0 1.6 0 3.2 0 4.7 3.3 0 6.6 0 9.9 0-0.1 1.3 0 2.5-0.1 3.8-4.6 0-9.1 0-13.7 0 0-6.9-0.1-13.8 0-20.8z"/>
	</g>
</svg>