<svg version="1.2" xmlns="http://www.w3.org/2000/svg" viewBox="0 0 605 480" width="605" height="480">
	<title>logo(1)</title>
	<style>
		.s0 { fill: #ffffff } 
	</style>
	<g id="#000000ff">
		<path class="s0" d="m159.3 49c22-1.1 44.3 3.7 63.9 13.7 22.6 11.5 41.6 29.9 53.9 52 11.3 20.2 16.8 43.6 15.8 66.7-2.4 25 6.8 50.8 24 69 16.5 17.7 40.2 28.4 64.4 28.5 7.6 0.2 15.1-1.3 22.6-1.8 23.2-2.2 45.1-15.2 57.9-34.6 9.8-14.5 14.3-32.4 13.1-49.8-0.4-4.5-0.9-9-0.4-13.5 1.2-11.8 7.4-23 16.9-30.1 8.7-6.7 20.1-9.9 31.1-8.6 12.1 1.2 23.5 7.9 30.6 17.9 6.7 9.3 9.4 21.4 7.4 32.7-2.6 15.7-14.6 29.3-29.7 33.9-23.3 6.4-42.6 24.7-51.3 47.1-6.5 16.5-7.1 35.3-1.7 52.2 4.8 11.7 6.9 24.6 5.6 37.2-2 22.6-14.7 43.9-33.5 56.5-15.1 10.2-34 14.8-52.1 12.6-23.4-2.5-45.1-16.6-57.1-36.7-5.7-9.2-9.1-19.6-10.6-30.2-4.9-25.8-21.6-49-44.6-61.7-23.3-13.3-52.7-15.2-77.6-5.1-24.4 8.7-51.5 9.6-76.5 2.8-21.6-5.9-41.5-17.6-57.1-33.5-16.9-17-28.8-38.9-33.9-62.3-5.4-24.6-3.4-50.9 6-74.4 9.1-23.2 25.3-43.5 45.8-57.7 19.6-13.8 43.2-21.8 67.1-22.8z"/>
	</g>
</svg>