<svg version="1.2" xmlns="http://www.w3.org/2000/svg" viewBox="0 0 806 640" width="806" height="640">
	<title>logo(1)</title>
	<style>
		.s0 { fill: #000000 } 
	</style>
	<g id="#000000ff">
		<path class="s0" d="m212.2 65.3c29.3-1.4 59 4.9 85.2 18.3 30.1 15.3 55.4 39.8 71.7 69.4 15.1 26.9 22.4 58.1 21.2 88.9-3.2 33.3 8.9 67.7 31.9 92 21.9 23.5 53.6 37.8 85.8 38 10.1 0.3 20-1.8 30.1-2.4 30.9-3 60.1-20.3 77.2-46.2 13-19.3 18.9-43.1 17.4-66.3-0.5-6-1.2-12.1-0.5-18.1 1.5-15.7 9.9-30.6 22.4-40.1 11.7-9 26.9-13.2 41.5-11.5 16.1 1.6 31.3 10.6 40.7 23.9 9 12.4 12.6 28.5 9.9 43.6-3.5 20.9-19.4 39-39.6 45.2-31.1 8.5-56.6 33-68.3 62.8-8.7 22-9.4 47.1-2.2 69.6 6.4 15.7 9.1 32.8 7.4 49.6-2.6 30.1-19.6 58.5-44.7 75.3-20.1 13.7-45.2 19.8-69.4 16.9-31.1-3.4-60-22.1-76.1-49-7.4-12.3-12-26.1-14-40.3-6.5-34.3-28.8-65.3-59.4-82.2-31.1-17.8-70.3-20.3-103.4-6.8-32.6 11.6-68.7 12.8-102 3.7-28.7-7.8-55.2-23.5-76-44.6-22.5-22.7-38.4-51.9-45.2-83.1-7.2-32.9-4.5-67.9 8-99.2 12.2-30.9 33.7-58 61-77 26.1-18.4 57.5-29 89.4-30.4z"/>
	</g>
</svg>