<svg xmlns="http://www.w3.org/2000/svg" xmlns:xlink="http://www.w3.org/1999/xlink" viewBox="0 0 840.99 244.06"><defs><style>.cls-1{fill:url(#linear-gradient);}.cls-2{fill:url(#radial-gradient);}.cls-3{fill:url(#radial-gradient-2);}.cls-4{fill:url(#radial-gradient-3);}.cls-5{fill:url(#radial-gradient-4);}.cls-6{fill:url(#radial-gradient-5);}.cls-7{fill:url(#radial-gradient-6);}.cls-8{fill:url(#radial-gradient-7);}.cls-9{fill:url(#linear-gradient-2);}</style><linearGradient id="linear-gradient" x1="693.2" y1="125.66" x2="840.99" y2="125.66" gradientUnits="userSpaceOnUse"><stop offset="0" stop-color="#9d4edd"/><stop offset="0.05" stop-color="#8a41c7"/><stop offset="0.13" stop-color="#722fab"/><stop offset="0.22" stop-color="#5e2194"/><stop offset="0.33" stop-color="#4f1682"/><stop offset="0.45" stop-color="#440f75"/><stop offset="0.62" stop-color="#3e0a6e"/><stop offset="1" stop-color="#3c096c"/></linearGradient><radialGradient id="radial-gradient" cx="41.81" cy="130.18" r="39.63" xlink:href="#linear-gradient"/><radialGradient id="radial-gradient-2" cx="138.09" cy="130.18" r="39.35" xlink:href="#linear-gradient"/><radialGradient id="radial-gradient-3" cx="233.51" cy="130.35" r="39.64" xlink:href="#linear-gradient"/><radialGradient id="radial-gradient-4" cx="292.94" cy="130.18" r="26.58" xlink:href="#linear-gradient"/><radialGradient id="radial-gradient-5" cx="351.06" cy="130.18" r="39.63" xlink:href="#linear-gradient"/><radialGradient id="radial-gradient-6" cx="436.9" cy="130.18" r="39.35" xlink:href="#linear-gradient"/><radialGradient id="radial-gradient-7" cx="532.67" cy="130.18" r="39.63" xlink:href="#linear-gradient"/><linearGradient id="linear-gradient-2" x1="539.39" y1="122.03" x2="688.11" y2="122.03" gradientUnits="userSpaceOnUse"><stop offset="0" stop-color="#3c096c"/><stop offset="0.38" stop-color="#3e0a6e"/><stop offset="0.55" stop-color="#440f75"/><stop offset="0.67" stop-color="#4f1682"/><stop offset="0.78" stop-color="#5e2194"/><stop offset="0.87" stop-color="#722fab"/><stop offset="0.95" stop-color="#8a41c7"/><stop offset="1" stop-color="#9d4edd"/></linearGradient></defs><g id="Layer_2" data-name="Layer 2"><g id="Layer_1-2" data-name="Layer 1"><path class="cls-1" d="M733,157.81c-7.12-3.77-12.82-4.44-17.95-.58-2.06,1.55-4,5-3.77,7.37s3,4.85,5.29,6.4c1.93,1.32,4.19,4.25,6.42,5.27,1.47.67,3.78-1,4.15.46.25,1-1.41,3.26-2.56,3.52a5.71,5.71,0,0,1-4.68-1.43c-5.32-5.72-10.36-11.71-15.1-17.15l2.17-5.24c-1.57-.48-3.14-1.4-4.7-1.36-3.86.09-8.93-4.22-9-8.76q-.27-28.75,0-57.5c0-1.86,1.49-4,2.86-5.49q33.54-36.39,67.31-72.58a7.94,7.94,0,0,1,5-2.52c20-.15,40-.07,60,0a8.79,8.79,0,0,1,1.81.72L729.55,117.45l32.13,36.22c-1.52,5.62-2.84,9.85-3.69,14.18-.17.87,1.43,2.09,2.22,3.15,1-1,2.3-1.89,3-3.1.51-.92.08-2.31.3-3.44.68-3.6,3.57-4.68,6.09-2.17a61.46,61.46,0,0,1,6.59,7.48c3.56,4.92,1.11,9.81-4.84,10.58-1.54.2-2.91,1.71-4.36,2.62,1.43.77,2.78,1.94,4.31,2.23,5.44,1,9.4-1.17,12.13-7.21L841,242.58a41.08,41.08,0,0,1-4.39.53c-18.5,0-37-.05-55.5.07a9.16,9.16,0,0,1-7.68-3.54c-15.52-17.84-31.2-35.53-47.08-53.56,1.17-1,2.47-1.63,3-2.67,1.4-2.65,3.87-5.85,3.26-8.13-.68-2.58-4-4.7-6.63-6.45-1.54-1.05,2.85-3.4,1.2-4.36-1.48-.85,1.16,1.42,0,0,1.5-1.08-7.55-4.05-5.89-4.42,2-.46,4.3.44,6.41.2C729.18,160.08,730.56,159,733,157.81ZM745,144c-2,2.35-3.74,3.46-4,4.84-.56,2.91-.16,6-3.57,7.61-.27.13.27,2.27.67,3.4.77,2.19,2.17,4.26,2.46,6.5.44,3.44-.06,7,.23,10.47.45,5.25,3.5,8.27,8.27,8.16,1.33,0,2.63-1.23,4-1.89-.88-1-1.82-1.93-2.63-3-1.53-2,9.83-1.59,2.77-3.83-2.75-.88,6.91-9.41-.44-11.8-2.81-.91-6-4.52-2.38-4.59,1,0,1.88-1.36,2.82-2.09-.88-.77-1.77-2.21-2.63-2.19-4.17.1-5.08-2.26-5-5.74C745.49,148.45,745.23,147,745,144Z"/><path class="cls-2" d="M9,92.86v74.65H0V92.86ZM34.34,125.7H74.65V92.86h9v74.65h-9V134.66H34.34Z"/><path class="cls-3" d="M130.72,93.35c1.22-.16,2.43-.29,3.65-.37s2.54-.13,3.72-.13c19.69,0,32.37,9.68,38,22.06a37.06,37.06,0,0,1,0,30.54c-5.61,12.38-18.29,22.06-38,22.06-12.59,0-22.35-4-29.24-10.17a35.65,35.65,0,0,1-9.59-13.93A37,37,0,0,1,97,127.2,36.05,36.05,0,0,1,114.34,99l4.62,7.67a27.15,27.15,0,0,0-13.09,21.28,28.25,28.25,0,0,0,1.75,12.32,26.91,26.91,0,0,0,7.18,10.48c5.32,4.75,13.07,7.85,23.3,7.85,15.63,0,25.55-7.36,29.82-16.77a28.34,28.34,0,0,0,0-23.2c-4.27-9.41-14.19-16.77-29.82-16.77-1.17,0-2.23,0-3.17.09s-2.07.18-3,.3Z"/><path class="cls-4" d="M268.87,167.85,200.8,137.22v30.29h-9V125.69h60.47c6.81,0,11.08-3.09,12.88-7.06a12,12,0,0,0,0-9.76c-1.8-4-6.07-7.07-12.88-7.07H200.8v6h-9V92.86h60.47c10.86,0,17.89,5.41,21,12.34a20.76,20.76,0,0,1,0,17.11c-3.14,6.94-10.17,12.35-21,12.35H216.9l55.64,25Z"/><path class="cls-5" d="M288.46,167.51V92.86h9v74.65Z"/><path class="cls-6" d="M376.48,118.29l-58.27,39.62v.64h70.18v9H309.25V153.22l62.22-42.31ZM313.73,92.86h79.13V104.8h-8.95v-3H313.73Z"/><path class="cls-7" d="M429.53,93.35c1.21-.16,2.43-.29,3.64-.37s2.54-.13,3.73-.13c19.68,0,32.36,9.68,38,22.06a37.13,37.13,0,0,1,0,30.54c-5.62,12.38-18.3,22.06-38,22.06-12.6,0-22.36-4-29.24-10.17a35.68,35.68,0,0,1-9.6-13.93,37.32,37.32,0,0,1-2.31-16.21A36.05,36.05,0,0,1,413.14,99l4.62,7.67a27.15,27.15,0,0,0-13.09,21.28,28.4,28.4,0,0,0,1.75,12.32,26.83,26.83,0,0,0,7.19,10.48c5.32,4.75,13.06,7.85,23.29,7.85,15.63,0,25.56-7.36,29.83-16.77a28.34,28.34,0,0,0,0-23.2c-4.27-9.41-14.2-16.77-29.83-16.77-1.17,0-2.22,0-3.17.09s-2.07.18-3,.3Z"/><path class="cls-8" d="M490.86,92.86h13.92l59.72,65.69h1V92.86h9v74.65H560.56l-59.73-65.7h-1v6h-9Zm0,74.65V122.72h9v44.79Z"/><path class="cls-9" d="M585.17,58.06c-.9-1.74-1.54-3.68-2.75-5.16-2.83-3.49-6-6.71-8.91-10.12-3.23-3.75-5.87-7.47-12.26-5.5-4.7,1.45-8.59-2-10.74-6.36-2-4.14-.67-9.67,2.8-12.81s9.13-4.14,13-1.3c3.45,2.55,5.94,1.62,8.88-.25,2.11-1.34,4.3-2.56,6.5-3.73,2.85-1.5,5.12-3,5.77-6.78.57-3.3,3.59-4.74,7-3.87a5.7,5.7,0,0,1,4.62,6.72c-.4,3.44-2.87,6.27-6,5.2-5.95-2-9.77,1.46-14.18,3.8-4.12,2.19-6.59,4.44-7.49,10.14-.95,6,.77,9.18,4.3,12.78,2.57,2.61,5,5.39,7.4,8.13,2.19,2.45,4,4.86,8.2,4.25,3.61-.52,6.25,3.34,6,7.12a6.3,6.3,0,0,1-7.14,6C586.17,65.9,583.91,62.88,585.17,58.06ZM638,119.34c4,.11,6.2-2.16,6.78-5.92s-2.15-7.63-5.81-7.19c-4.61.55-6.55-2.19-9-4.89-3.43-3.85-6.95-7.64-10.34-11.53-.83-1-1.82-2.2-1.87-3.35-.24-5,3.49-10.24,8.37-12.2,1.39-.56,2.77-1.16,4.17-1.68,4.1-1.5,7.84-3.77,12.68-1.17,2.86,1.54,5.89-.5,6.91-3.9s-.24-6-3.46-7.35-6.34-.54-7.52,2.71-3.18,4.74-6.16,5.74c-3.63,1.21-7.12,2.91-10.81,3.89a7,7,0,0,1-5.23-.83c-5.36-3.87-10.73-4.44-15.15-1.09a11.3,11.3,0,0,0-3.09,14c2.42,4.88,7.21,6.64,13.64,5.55a6.59,6.59,0,0,1,5.06,1.46c4.68,4.73,9.09,9.74,13.42,14.8a9.55,9.55,0,0,1,1.56,3.25C631.75,116.1,634,119.22,638,119.34Zm-50.41,67.11c-1.44,2.8-2.52,5.89-4.42,8.36-3.14,4.07-6.89,7.66-10.21,11.6-2.08,2.46-3.9,3.83-7.58,2.61-4.72-1.57-9.52.87-12,5a11.43,11.43,0,0,0,1.22,13c3,3.54,8.66,5.43,12.61,2.64,4.78-3.36,8.13-1.53,12,.88,2.11,1.32,4.53,2.22,6.46,3.74a10.63,10.63,0,0,1,3.31,4.48c1.47,4.09,4.26,6.12,7.78,4.95,3.35-1.11,4.72-3.57,4.1-7-.65-3.63-3.88-5.27-8.09-4.29-2.91.67-17.37-6-18.65-8.64a3.1,3.1,0,0,1-.25-.95c-.85-7.08-2.32-14.14,5.13-19.27,3.06-2.11,5-5.74,7.81-8.35a8.82,8.82,0,0,1,5-2.16c4-.3,6.84-1.79,7.3-6s-1.56-6.52-6.3-7.15c1,5.42-3.45,4.23-6.14,5.34Zm69.15-62.54c-.7.69.56,4.65,2,5.77,1.17.93,4.91.64,5.68-.43,1.18-1.63,1.86-5.45.85-6.49-3-3.08-2.76-6.6-2.94-10.16-.28-5.48-.28-11-.6-16.46-.19-3.35.28-5.78,3.57-7.9,3.89-2.5,4.72-6.79,2.72-11.09A8.38,8.38,0,0,0,658.67,72c-4.74.68-7.23,3.67-7.74,8.43-.58,5.35-4.34,7.65-9.63,5.88-3.94-1.32-6.53.23-8,3.79a6,6,0,0,0,3.77,8.06c3.78,1,7-.26,7.67-4.24.83-4.63,4.13-6.07,7.72-6.35s6.42,3.79,6.52,8.34c.07,3.33,0,6.66,0,10C658.38,111.85,662.31,118.39,656.76,123.91Zm-71.5-85.19c2.27.32,4.93-1.46,7.27-2.63,2.07-1,3.84-2.65,5.89-3.7,3.87-2,5.79,1.19,8.32,3.19,4.63,3.64,5.93,11.2,2.2,15.79-2.25,2.78-2.8,5.78.18,7.75,1.54,1,5,.86,6.55-.25,2.65-1.91,2.07-4.84,0-7.41C612,47,613,39.2,617.57,35.69c3.46-2.65,4.36-6.21,3.31-10.23s-4-6.75-7.89-6.36c-3,.31-6.86,2.11-8.57,4.51-4.58,6.43-7.23,7.59-14.07,3.93-4.51-2.41-9.63.54-9.55,7.19C581.71,35.61,583.31,38.45,585.26,38.72Zm21,174.49c-5.87,3.88-9.73,3.89-13.88-1.45-2.39-3.08-5.4-3.93-8.74-1.66-3.14,2.14-3.66,5.27-1.68,8.3,2.14,3.28,5.35,3.7,8.75,1.73,5.86-3.4,10.18-2.16,13.4,3.85,1.91,3.55,5.12,6.06,8.89,5a14.33,14.33,0,0,0,7.62-6.08,7.3,7.3,0,0,0-2.54-9.78c-3.09-2-5.22-4-4.35-7.91.69-3.07,1.21-6.28,2.54-9.08s2-5.41-.68-7.05a7.33,7.33,0,0,0-6.24-.16c-2.77,1.5-2.44,4.27-.94,7,1.36,2.46,2.37,5.12,3.53,7.69C612,208.32,610,210.76,606.31,213.21Zm47.48-42.1c0,3.92,2.51,5.22,5.91,5.16s7.13-.78,6.37-5.07c-1.7-9.53,3.88-16,8.46-23,1.63-2.5,3.33-4,6.74-4,4.61,0,7.43-4.1,6.73-8.63a7.85,7.85,0,0,0-8.71-6.47c-4.28.62-7.59,5.06-5.88,9.28,1.59,3.9.12,6.27-1.9,9-1.77,2.41-3.11,5.2-5.12,7.37-1.72,1.84-4.08,4.21-6.24,4.29-5.88.24-7.11,3.19-6.37,7.35C653.78,168.44,653.77,169.77,653.79,171.11Zm20.07-78.75a10.61,10.61,0,0,0,1.91,8.42c3.91,4.61,4.2,6.57,1.07,11.88-1,1.75-.91,5.65.34,6.87s5.53,1.21,6.71,0,1.36-5.15.32-6.92c-3.22-5.47-2.93-7.1,1.31-12.19,1.67-2,2.26-5.93,1.59-8.52-.54-2.1-3.72-3.51-6.46-5.85C677.77,88.57,674.48,90.1,673.86,92.36Zm-57.62,75.8a44.88,44.88,0,0,0,0-6.46c-.68-4.67-4.76-3.69-7.75-4.15-2.68-.41-5,.28-5,3.79,0,4,.18,7.93.15,11.9s1.35,6.45,5.73,6.29c4.15-.15,7.16-1.5,7-6.4-.07-1.65,0-3.31,0-5Zm5.1-13.08a49.34,49.34,0,0,0,3.93-3.12c4.46-4.32,7.28-10.46,15.09-10.67,3.66-.09,5.19-4,4.24-7.71-.9-3.47-3.44-5.4-7.08-4.88-3.86.56-5.35,3.13-5.65,7a15,15,0,0,1-2.58,7.35c-2.71,3.71-6.09,6.93-9.19,10.36Zm3-106.15a7.15,7.15,0,0,0,14.29,0,7.15,7.15,0,1,0-14.29,0ZM546,0a6.9,6.9,0,0,0-6.6,6.73,6.71,6.71,0,0,0,6.76,6.5A6.62,6.62,0,0,0,546,0Zm97.76,182.09c-3.7,3.35-7,3-11.23-.45-3-2.52-6.44-4.56-9.68-6.81l-1.34,1.95c1.68,1.2,3.45,2.27,5,3.6,2.76,2.34,5.39,4.83,8.07,7.25,1.94,1.76,3.64,4.32,5.9,5,1.44.43,4.69-1.55,5.36-3.17.86-2.1-.06-4.92-.21-7.43Zm-91.3,55.2c-.08-3.7-2.25-5.91-6.06-5.83s-6,2.31-6,6,2.41,5.63,6.09,5.91C550.22,243,552.54,241.06,552.45,237.29Zm110.4-96.19c-1.92-1.27-3.71-3.24-5.79-3.62-2.95-.53-5.61,1.63-4.9,4.56a8.23,8.23,0,0,0,5.17,5.08c1.49.34,3.68-2.36,5.56-3.7C662.88,142.64,662.87,141.87,662.85,141.1ZM567.75.87c-1.14,1.86-3.4,3.93-3.11,5.53.31,1.76,3,3.08,4.65,4.6,1.5-1.67,4.08-3.25,4.21-5s-2.36-3.47-3.69-5.21Zm64,204.2c-.23-1.65-2.65-3-4.11-4.47-1.51,1.59-3.9,3-4.22,4.84-.25,1.35,2.19,3.17,4.43,6.07C629.8,208.45,631.94,206.6,631.73,205.07Zm17.63-40.36c-4.56-2-8.09-3.56-11.72-4.9-.3-.11-1.67,1.48-1.82,2.39a32.76,32.76,0,0,0-.09,5.29Zm-79,71c-1.56.37-2.73,2.44-4.06,3.77,1.26,1.25,2.51,3.46,3.8,3.49,1.51,0,3.06-1.84,5.85-3.74C573.24,237.41,571.57,235.47,570.41,235.73Z"/></g></g></svg>