<svg xmlns="http://www.w3.org/2000/svg" xmlns:xlink="http://www.w3.org/1999/xlink" viewBox="0 0 320.13 36.45"><defs><style>.cls-1{fill:url(#radial-gradient);}.cls-2{fill:url(#radial-gradient-2);}.cls-3{fill:url(#radial-gradient-3);}.cls-4{fill:url(#radial-gradient-4);}.cls-5{fill:url(#radial-gradient-5);}.cls-6{fill:url(#radial-gradient-6);}.cls-7{fill:url(#radial-gradient-7);}.cls-8{fill:url(#radial-gradient-8);}</style><radialGradient id="radial-gradient" cx="18.82" cy="18.23" r="17.84" gradientUnits="userSpaceOnUse"><stop offset="0" stop-color="#9d4edd"/><stop offset="0.05" stop-color="#8a41c7"/><stop offset="0.13" stop-color="#722fab"/><stop offset="0.22" stop-color="#5e2194"/><stop offset="0.33" stop-color="#4f1682"/><stop offset="0.45" stop-color="#440f75"/><stop offset="0.62" stop-color="#3e0a6e"/><stop offset="1" stop-color="#3c096c"/></radialGradient><radialGradient id="radial-gradient-2" cx="62.16" cy="18.23" r="17.71" xlink:href="#radial-gradient"/><radialGradient id="radial-gradient-3" cx="105.11" cy="18.3" r="17.84" xlink:href="#radial-gradient"/><radialGradient id="radial-gradient-4" cx="131.85" cy="18.23" r="11.97" xlink:href="#radial-gradient"/><radialGradient id="radial-gradient-5" cx="158.02" cy="18.23" r="17.84" xlink:href="#radial-gradient"/><radialGradient id="radial-gradient-6" cx="196.65" cy="18.23" r="17.71" xlink:href="#radial-gradient"/><radialGradient id="radial-gradient-7" cx="239.76" cy="18.23" r="17.84" xlink:href="#radial-gradient"/><radialGradient id="radial-gradient-8" cx="301.9" cy="18.23" r="18.23" xlink:href="#radial-gradient"/></defs><g id="Layer_2" data-name="Layer 2"><g id="Layer_1-2" data-name="Layer 1"><path class="cls-1" d="M4,1.43V35H0V1.43ZM15.46,16.21H33.6V1.43h4V35h-4V20.24H15.46Z"/><path class="cls-2" d="M58.84,1.65c.55-.07,1.09-.13,1.64-.17s1.14-.06,1.68-.06c8.86,0,14.56,4.36,17.09,9.93a16.66,16.66,0,0,1,0,13.75C76.72,30.67,71,35,62.16,35,56.49,35,52.09,33.22,49,30.45a15.85,15.85,0,0,1-4.32-6.27,16.66,16.66,0,0,1-1-7.29A16.21,16.21,0,0,1,51.47,4.17l2.08,3.45a12.22,12.22,0,0,0-5.9,9.58,12.82,12.82,0,0,0,.79,5.55,12.16,12.16,0,0,0,3.23,4.71C54.07,29.6,57.56,31,62.16,31c7,0,11.5-3.32,13.42-7.55a12.75,12.75,0,0,0,0-10.44C73.66,8.77,69.2,5.46,62.16,5.46c-.53,0-1,0-1.43,0s-.93.08-1.35.13Z"/><path class="cls-3" d="M121,35.18,90.38,21.4V35h-4V16.21h27.22c3.06,0,5-1.39,5.79-3.18a5.33,5.33,0,0,0,0-4.39c-.81-1.79-2.73-3.18-5.79-3.18H90.38V8.15h-4V1.43h27.22c4.88,0,8.05,2.43,9.46,5.55a9.34,9.34,0,0,1,0,7.71c-1.41,3.12-4.58,5.55-9.46,5.55H97.63l25,11.27Z"/><path class="cls-4" d="M129.84,35V1.43h4V35Z"/><path class="cls-5" d="M169.46,12.88,143.23,30.71V31h31.59v4H139.2V28.6l28-19ZM141.21,1.43h35.62V6.8h-4V5.46H141.21Z"/><path class="cls-6" d="M193.33,1.65c.55-.07,1.1-.13,1.64-.17s1.15-.06,1.68-.06c8.86,0,14.57,4.36,17.1,9.93a16.73,16.73,0,0,1,0,13.75c-2.53,5.57-8.24,9.93-17.1,9.93-5.67,0-10.06-1.81-13.16-4.58a16.06,16.06,0,0,1-4.32-6.27,16.8,16.8,0,0,1-1-7.29A16.23,16.23,0,0,1,186,4.17L188,7.62a12.23,12.23,0,0,0-5.89,9.58,12.82,12.82,0,0,0,.79,5.55,12.05,12.05,0,0,0,3.23,4.71c2.39,2.14,5.88,3.54,10.48,3.54,7,0,11.51-3.32,13.43-7.55a12.75,12.75,0,0,0,0-10.44c-1.92-4.24-6.39-7.55-13.43-7.55-.52,0-1,0-1.42,0s-.93.08-1.36.13Z"/><path class="cls-7" d="M220.94,1.43h6.27L254.09,31h.45V1.43h4V35h-6.27L225.43,5.46H225V8.15h-4Zm0,33.6V14.87h4V35Z"/><path class="cls-8" d="M304.75,18.23,320.13,33.6l-2.85,2.85L301.9,21.08,286.53,36.45l-2.85-2.85L317.28,0l2.85,2.85ZM286.53,0l11.32,11.32L295,14.17,283.68,2.85Z"/></g></g></svg>