<svg xmlns="http://www.w3.org/2000/svg" viewBox="0 0 321.34 37.87"><defs><style>.cls-1{fill:#fff;stroke:#000;stroke-miterlimit:10;}</style></defs><g id="Layer_2" data-name="Layer 2"><g id="Layer_1-2" data-name="Layer 1"><path class="cls-1" d="M4.53,2.13V35.74H.5V2.13ZM16,16.92H34.1V2.13h4V35.74h-4V21H16Z"/><path class="cls-1" d="M59.34,2.36c.55-.08,1.09-.13,1.64-.17s1.14-.06,1.68-.06c8.86,0,14.56,4.36,17.09,9.93a16.66,16.66,0,0,1,0,13.75c-2.53,5.57-8.23,9.92-17.09,9.92-5.67,0-10.07-1.8-13.16-4.57a16,16,0,0,1-4.32-6.27,16.68,16.68,0,0,1-1-7.3A16.19,16.19,0,0,1,52,4.88l2.08,3.45a12.2,12.2,0,0,0-5.9,9.58,12.75,12.75,0,0,0,.79,5.54,12.12,12.12,0,0,0,3.23,4.72c2.4,2.14,5.89,3.53,10.49,3.53,7,0,11.5-3.31,13.42-7.55a12.75,12.75,0,0,0,0-10.44C74.16,9.48,69.7,6.16,62.66,6.16c-.53,0-1,0-1.43,0s-.93.07-1.35.13Z"/><path class="cls-1" d="M121.52,35.89,90.88,22.1V35.74h-4V16.91h27.22c3.06,0,5-1.4,5.79-3.18a5.36,5.36,0,0,0,0-4.4c-.81-1.78-2.73-3.17-5.79-3.17H90.88V8.85h-4V2.13h27.22c4.88,0,8.05,2.44,9.46,5.56a9.32,9.32,0,0,1,0,7.7C122.12,18.51,119,21,114.07,21H98.13l25,11.27Z"/><path class="cls-1" d="M130.34,35.74V2.13h4V35.74Z"/><path class="cls-1" d="M170,13.58,143.73,31.42v.28h31.59v4H139.7V29.3l28-19ZM141.71,2.13h35.62V7.51h-4V6.17H141.71Z"/><path class="cls-1" d="M193.83,2.36c.55-.08,1.1-.13,1.64-.17s1.15-.06,1.68-.06c8.86,0,14.57,4.36,17.1,9.93a16.73,16.73,0,0,1,0,13.75c-2.53,5.57-8.24,9.92-17.1,9.92-5.67,0-10.06-1.8-13.16-4.57a16.21,16.21,0,0,1-4.32-6.27,16.83,16.83,0,0,1-1-7.3,16.21,16.21,0,0,1,7.83-12.71l2.08,3.45a12.22,12.22,0,0,0-5.89,9.58,12.75,12.75,0,0,0,.79,5.54,12,12,0,0,0,3.23,4.72c2.39,2.14,5.88,3.53,10.48,3.53,7,0,11.51-3.31,13.43-7.55a12.75,12.75,0,0,0,0-10.44c-1.92-4.23-6.39-7.55-13.43-7.55-.52,0-1,0-1.42,0s-.93.07-1.36.13Z"/><path class="cls-1" d="M221.44,2.13h6.27L254.59,31.7H255V2.13h4V35.74h-6.27L225.93,6.17h-.46V8.85h-4Zm0,33.61V15.57h4V35.74Z"/><path class="cls-1" d="M305.25,18.93l15.38,15.38-2.85,2.85L302.4,21.79,287,37.16l-2.85-2.85L317.78.71l2.85,2.85ZM287,.71,298.35,12l-2.85,2.85L284.18,3.56Z"/></g></g></svg>