<svg xmlns="http://www.w3.org/2000/svg" viewBox="0 0 323.75 290.84"><defs><style>.cls-1{fill:#fff;stroke:#000;stroke-miterlimit:10;stroke-width:3px;}</style></defs><g id="Layer_2" data-name="Layer 2"><g id="Layer_1-2" data-name="Layer 1"><path class="cls-1" d="M197.94,159.31c-7.12-3.77-12.83-4.44-17.95-.58-2.06,1.55-4,5-3.77,7.37s3,4.85,5.28,6.4c1.94,1.32,4.2,4.25,6.43,5.27,1.47.67,3.78-1,4.15.46.25,1-1.42,3.26-2.56,3.52a5.71,5.71,0,0,1-4.68-1.43c-5.32-5.72-10.36-11.71-15.1-17.15l2.17-5.24c-1.57-.48-3.15-1.4-4.7-1.36-3.87.09-8.93-4.22-9-8.76q-.25-28.76,0-57.5c0-1.86,1.49-4,2.86-5.49q33.54-36.39,67.31-72.58a7.94,7.94,0,0,1,5-2.52c20-.15,40-.07,60,0a8.75,8.75,0,0,1,1.82.72L194.45,119l32.12,36.22c-1.52,5.62-2.83,9.85-3.68,14.18-.17.87,1.43,2.09,2.21,3.15,1-1,2.31-1.89,3-3.1.5-.92.08-2.31.29-3.44.69-3.6,3.57-4.68,6.1-2.17a62.32,62.32,0,0,1,6.59,7.48c3.56,4.92,1.1,9.81-4.85,10.58-1.54.2-2.91,1.71-4.35,2.62,1.43.77,2.78,1.94,4.3,2.23,5.44,1,9.41-1.17,12.13-7.21l57.61,64.59a41.37,41.37,0,0,1-4.39.53c-18.5,0-37-.05-55.5.07a9.18,9.18,0,0,1-7.69-3.54c-15.51-17.84-31.19-35.53-47.07-53.56,1.16-1,2.47-1.63,3-2.67,1.39-2.65,3.87-5.85,3.26-8.13-.68-2.58-4-4.7-6.63-6.45-1.54-1.05,2.85-3.4,1.2-4.36-1.48-.85,1.15,1.42,0,0,1.5-1.08-7.56-4.05-5.89-4.42,2-.46,4.3.44,6.41.2C194.08,161.58,195.45,160.49,197.94,159.31Zm11.91-13.83c-2,2.35-3.74,3.46-4,4.84-.56,2.91-.16,6-3.58,7.61-.26.13.28,2.27.67,3.4.77,2.19,2.18,4.26,2.47,6.5.44,3.44-.06,7,.23,10.47.44,5.25,3.5,8.27,8.27,8.16,1.33,0,2.63-1.23,4-1.89-.88-1-1.82-1.93-2.63-3-1.53-2,9.83-1.59,2.77-3.83-2.76-.88,6.91-9.41-.44-11.8-2.81-.91-6-4.52-2.38-4.59.95,0,1.88-1.36,2.82-2.09-.88-.77-1.77-2.21-2.63-2.19-4.18.1-5.08-2.26-5-5.74C210.38,150,210.13,148.54,209.85,145.48Z"/><path class="cls-1" d="M5.53,253.69v33.6h-4v-33.6ZM17,268.48H35.1V253.69h4v33.6h-4V272.51H17Z"/><path class="cls-1" d="M60.34,253.92c.55-.08,1.09-.14,1.64-.17s1.14-.06,1.68-.06c8.86,0,14.56,4.35,17.09,9.93a16.63,16.63,0,0,1,0,13.74c-2.53,5.58-8.23,9.93-17.09,9.93-5.67,0-10.07-1.8-13.16-4.57a16,16,0,0,1-4.32-6.28,16.61,16.61,0,0,1-1-7.29A16.22,16.22,0,0,1,53,256.43l2.08,3.45a12.22,12.22,0,0,0-5.9,9.59,12.77,12.77,0,0,0,.79,5.54,12.12,12.12,0,0,0,3.23,4.72c2.4,2.14,5.89,3.53,10.49,3.53,7,0,11.5-3.31,13.42-7.55a12.75,12.75,0,0,0,0-10.44c-1.92-4.24-6.38-7.55-13.42-7.55-.53,0-1,0-1.43,0s-.93.08-1.35.14Z"/><path class="cls-1" d="M122.52,287.45,91.88,273.66v13.63h-4V268.47h27.22c3.06,0,5-1.4,5.79-3.18a5.36,5.36,0,0,0,0-4.4c-.81-1.78-2.73-3.18-5.79-3.18H91.88v2.69h-4v-6.72h27.22c4.88,0,8.05,2.44,9.46,5.56a9.32,9.32,0,0,1,0,7.7c-1.41,3.12-4.58,5.56-9.46,5.56H99.13l25,11.27Z"/><path class="cls-1" d="M131.34,287.29v-33.6h4v33.6Z"/><path class="cls-1" d="M171,265.14,144.73,283v.29h31.59v4H140.7v-6.43l28-19Zm-28.25-11.45h35.62v5.38h-4v-1.35H142.71Z"/><path class="cls-1" d="M194.83,253.92c.55-.08,1.1-.14,1.64-.17s1.15-.06,1.68-.06c8.86,0,14.57,4.35,17.1,9.93a16.71,16.71,0,0,1,0,13.74c-2.53,5.58-8.24,9.93-17.1,9.93-5.67,0-10.06-1.8-13.16-4.57a16.17,16.17,0,0,1-4.32-6.28,16.76,16.76,0,0,1-1-7.29,16.25,16.25,0,0,1,7.83-12.72l2.08,3.45a12.24,12.24,0,0,0-5.89,9.59,12.77,12.77,0,0,0,.79,5.54,12,12,0,0,0,3.23,4.72c2.39,2.14,5.88,3.53,10.48,3.53,7,0,11.51-3.31,13.43-7.55a12.75,12.75,0,0,0,0-10.44c-1.92-4.24-6.39-7.55-13.43-7.55-.52,0-1,0-1.42,0s-.93.08-1.36.14Z"/><path class="cls-1" d="M222.44,253.69h6.27l26.88,29.57H256V253.69h4v33.6h-6.27l-26.88-29.57h-.46v2.69h-4Zm0,33.6V267.13h4v20.16Z"/><path class="cls-1" d="M306.25,270.49l15.38,15.38-2.85,2.85L303.4,273.34,288,288.72l-2.85-2.85,33.6-33.61,2.85,2.86ZM288,252.26l11.32,11.33-2.85,2.85-11.32-11.32Z"/><path class="cls-1" d="M50.07,59.56c-.9-1.74-1.55-3.68-2.75-5.16-2.84-3.49-6-6.71-8.92-10.12-3.23-3.75-5.87-7.47-12.26-5.5-4.69,1.45-8.58-2-10.73-6.36-2-4.14-.67-9.67,2.8-12.81s9.12-4.14,13-1.3c3.45,2.55,5.94,1.62,8.88-.25,2.11-1.34,4.29-2.56,6.5-3.73,2.84-1.5,5.12-3,5.77-6.78.57-3.3,3.58-4.74,7-3.87A5.71,5.71,0,0,1,64,10.4c-.4,3.44-2.87,6.27-6,5.2-6-2-9.76,1.46-14.17,3.8-4.12,2.19-6.59,4.44-7.49,10.14-1,6,.77,9.18,4.3,12.78,2.56,2.61,5,5.39,7.4,8.13,2.18,2.45,3.95,4.86,8.2,4.25,3.61-.52,6.24,3.34,6,7.12a6.3,6.3,0,0,1-7.14,6C51.06,67.4,48.81,64.38,50.07,59.56Zm52.84,61.28c4,.11,6.21-2.16,6.78-5.92s-2.14-7.63-5.8-7.19c-4.61.55-6.55-2.19-9-4.89C91.5,99,88,95.2,84.6,91.31c-.84-1-1.82-2.2-1.87-3.35-.24-5,3.49-10.24,8.37-12.2,1.39-.56,2.76-1.16,4.17-1.68,4.1-1.5,7.83-3.77,12.68-1.17,2.86,1.54,5.89-.5,6.9-3.9s-.23-6-3.45-7.35-6.35-.54-7.52,2.71-3.18,4.74-6.17,5.74C94.08,71.32,90.6,73,86.91,74a7,7,0,0,1-5.24-.83c-5.36-3.87-10.73-4.44-15.14-1.09a11.28,11.28,0,0,0-3.09,14c2.42,4.88,7.2,6.64,13.64,5.55a6.56,6.56,0,0,1,5,1.46c4.68,4.73,9.09,9.74,13.43,14.8a9.46,9.46,0,0,1,1.55,3.25C96.65,117.6,98.85,120.72,102.91,120.84ZM52.51,188c-1.45,2.8-2.53,5.89-4.42,8.36-3.14,4.07-6.9,7.66-10.22,11.6-2.08,2.46-3.9,3.83-7.57,2.61-4.73-1.57-9.53.87-12,5a11.43,11.43,0,0,0,1.22,13c3,3.54,8.66,5.43,12.61,2.64,4.77-3.36,8.13-1.53,12,.88,2.11,1.32,4.52,2.22,6.46,3.74a10.53,10.53,0,0,1,3.3,4.48c1.48,4.09,4.26,6.12,7.78,4.95,3.35-1.11,4.72-3.57,4.11-7-.66-3.63-3.88-5.27-8.1-4.29-2.91.67-17.37-6-18.65-8.64a3.09,3.09,0,0,1-.24-.95c-.85-7.08-2.32-14.14,5.12-19.27,3.07-2.11,5-5.74,7.82-8.35a8.82,8.82,0,0,1,5-2.16c4-.3,6.84-1.79,7.29-6s-1.55-6.52-6.29-7.15c1,5.42-3.46,4.23-6.14,5.34Zm69.15-62.54c-.7.69.56,4.65,2,5.77,1.16.93,4.91.64,5.68-.43,1.18-1.63,1.86-5.45.85-6.49-3-3.08-2.76-6.6-2.94-10.16-.28-5.48-.28-11-.6-16.46-.19-3.35.27-5.78,3.57-7.9,3.88-2.5,4.72-6.79,2.72-11.09a8.38,8.38,0,0,0-9.35-5.14c-4.74.68-7.22,3.67-7.73,8.43-.58,5.35-4.34,7.65-9.63,5.88-4-1.32-6.53.23-8,3.79A6,6,0,0,0,102,99.67c3.78,1,7-.26,7.67-4.24.82-4.63,4.13-6.07,7.71-6.35s6.42,3.79,6.52,8.34c.08,3.33,0,6.66,0,10C123.28,113.35,127.21,119.89,121.66,125.41ZM50.16,40.22c2.27.32,4.93-1.46,7.27-2.63,2.07-1,3.84-2.65,5.89-3.7,3.87-2,5.79,1.19,8.32,3.19,4.63,3.64,5.92,11.2,2.2,15.79-2.25,2.78-2.8,5.78.18,7.75,1.54,1,5,.86,6.55-.25,2.65-1.91,2.07-4.84,0-7.41-3.68-4.51-2.66-12.26,1.92-15.77C85.92,34.54,86.83,31,85.78,27s-4-6.75-7.89-6.36c-3,.31-6.87,2.11-8.58,4.51C64.73,31.54,62.08,32.7,55.25,29c-4.51-2.41-9.63.54-9.55,7.19C46.61,37.11,48.21,40,50.16,40.22Zm21,174.49c-5.88,3.88-9.73,3.89-13.88-1.45-2.39-3.08-5.41-3.93-8.75-1.66-3.13,2.14-3.65,5.27-1.67,8.3,2.14,3.28,5.35,3.7,8.75,1.73,5.86-3.4,10.17-2.16,13.4,3.85,1.91,3.55,5.11,6.06,8.89,5a14.27,14.27,0,0,0,7.61-6.08A7.28,7.28,0,0,0,83,214.57c-3.09-2-5.23-4-4.36-7.91.7-3.07,1.21-6.28,2.54-9.08s2-5.41-.68-7.05a7.31,7.31,0,0,0-6.23-.16c-2.78,1.5-2.44,4.27-1,7,1.37,2.46,2.38,5.12,3.54,7.69C76.85,209.82,74.93,212.26,71.21,214.71Zm47.47-42.1c0,3.92,2.52,5.22,5.92,5.16s7.12-.78,6.36-5.07c-1.69-9.53,3.89-16,8.47-23,1.63-2.5,3.33-4,6.73-4,4.62,0,7.44-4.1,6.74-8.63a7.86,7.86,0,0,0-8.72-6.47c-4.27.62-7.59,5.06-5.87,9.28,1.58,3.9.11,6.27-1.9,9-1.77,2.41-3.11,5.2-5.12,7.37-1.72,1.84-4.08,4.21-6.24,4.29-5.88.24-7.12,3.19-6.37,7.35C118.68,169.94,118.67,171.27,118.68,172.61Zm20.07-78.75a10.61,10.61,0,0,0,1.92,8.42c3.91,4.61,4.2,6.57,1.07,11.88-1,1.75-.91,5.65.34,6.87s5.52,1.21,6.71,0,1.36-5.15.31-6.92c-3.21-5.47-2.92-7.1,1.32-12.19,1.66-2,2.26-5.93,1.59-8.52-.54-2.1-3.72-3.51-6.47-5.85C142.66,90.07,139.37,91.6,138.75,93.86Zm-57.61,75.8a44.88,44.88,0,0,0,0-6.46c-.68-4.67-4.76-3.69-7.76-4.15-2.68-.41-5,.28-5,3.79.06,4,.19,7.93.15,11.9s1.35,6.45,5.74,6.29c4.14-.15,7.16-1.5,7-6.4-.07-1.65,0-3.31,0-5Zm5.1-13.08a47.45,47.45,0,0,0,3.92-3.12c4.46-4.32,7.29-10.46,15.1-10.67,3.66-.09,5.19-4,4.23-7.71-.89-3.47-3.43-5.4-7.08-4.88-3.86.56-5.34,3.13-5.65,7a14.87,14.87,0,0,1-2.57,7.35c-2.72,3.71-6.09,6.93-9.19,10.36Zm3-106.15a7.15,7.15,0,0,0,14.28,0,7.14,7.14,0,1,0-14.28,0ZM10.89,1.5a6.9,6.9,0,0,0-6.6,6.73A6.7,6.7,0,0,0,11,14.73,6.62,6.62,0,0,0,10.89,1.5Zm97.76,182.09c-3.7,3.35-7,3-11.24-.45-3-2.52-6.44-4.56-9.68-6.81l-1.34,1.95c1.68,1.2,3.46,2.27,5,3.6,2.76,2.34,5.39,4.83,8.07,7.25,1.94,1.76,3.64,4.32,5.89,5,1.45.43,4.7-1.55,5.37-3.17.86-2.1-.06-4.92-.21-7.43Zm-91.3,55.2c-.08-3.7-2.25-5.91-6.06-5.83s-6,2.31-6,6,2.41,5.63,6.08,5.91C15.11,244.48,17.43,242.56,17.35,238.79Zm110.4-96.19c-1.92-1.27-3.71-3.24-5.79-3.62-2.95-.53-5.61,1.63-4.9,4.56a8.23,8.23,0,0,0,5.17,5.08c1.49.34,3.68-2.36,5.56-3.7C127.78,144.14,127.76,143.37,127.75,142.6ZM32.65,2.37C31.51,4.23,29.24,6.3,29.53,7.9c.32,1.76,3,3.08,4.65,4.6,1.51-1.67,4.08-3.25,4.22-5S36,4,34.7,2.28Zm64,204.2c-.22-1.65-2.64-3-4.11-4.47-1.5,1.59-3.89,3-4.22,4.84-.24,1.35,2.2,3.17,4.44,6.07C94.7,210,96.84,208.1,96.62,206.57Zm17.63-40.36c-4.55-2-8.08-3.56-11.72-4.9-.3-.11-1.67,1.48-1.81,2.39a31.66,31.66,0,0,0-.09,5.29Zm-78.94,71c-1.56.37-2.73,2.44-4.07,3.77,1.27,1.25,2.51,3.46,3.81,3.49,1.5,0,3.05-1.84,5.85-3.74C38.14,238.91,36.47,237,35.31,237.23Z"/></g></g></svg>