<svg xmlns="http://www.w3.org/2000/svg" viewBox="0 0 303.11 245.06"><defs><style>.cls-1{fill:#fff;stroke:#000;stroke-miterlimit:10;}</style></defs><g id="Layer_2" data-name="Layer 2"><g id="Layer_1-2" data-name="Layer 1"><path class="cls-1" d="M194.15,158.31c-7.12-3.77-12.83-4.44-18-.58-2.06,1.55-4,5-3.77,7.37s3,4.85,5.28,6.4c1.94,1.32,4.2,4.25,6.43,5.27,1.47.67,3.78-1,4.15.46.25,1-1.42,3.26-2.56,3.52a5.71,5.71,0,0,1-4.68-1.43c-5.32-5.72-10.36-11.71-15.1-17.15l2.17-5.24c-1.57-.48-3.14-1.4-4.7-1.36-3.87.09-8.93-4.22-9-8.76q-.25-28.75,0-57.5c0-1.86,1.49-4,2.86-5.49q33.54-36.39,67.31-72.58a7.94,7.94,0,0,1,5-2.52c20-.15,40-.07,60,0a9,9,0,0,1,1.81.72L190.66,118c11.22,12.66,22.32,25.16,32.13,36.22-1.52,5.62-2.84,9.85-3.69,14.18-.17.87,1.43,2.09,2.21,3.15,1-1,2.31-1.89,3-3.1.5-.92.08-2.31.3-3.44.68-3.6,3.56-4.68,6.09-2.17a62.32,62.32,0,0,1,6.59,7.48c3.56,4.92,1.1,9.81-4.85,10.58-1.53.2-2.9,1.71-4.35,2.62,1.43.77,2.78,1.94,4.3,2.23,5.44,1,9.41-1.17,12.14-7.21l57.6,64.59a41.37,41.37,0,0,1-4.39.53c-18.5,0-37-.05-55.5.07a9.15,9.15,0,0,1-7.68-3.54c-15.52-17.84-31.2-35.53-47.08-53.56,1.16-1,2.47-1.63,3-2.67,1.39-2.65,3.87-5.85,3.26-8.13-.68-2.58-4-4.7-6.63-6.45-1.54-1.05,2.85-3.4,1.2-4.36-1.48-.85,1.15,1.42,0,0,1.5-1.08-7.55-4.05-5.89-4.42,2-.46,4.3.44,6.41.2C190.29,160.58,191.66,159.49,194.15,158.31Zm11.91-13.83c-2,2.35-3.74,3.46-4,4.84-.56,2.91-.16,6-3.57,7.61-.27.13.27,2.27.66,3.4.78,2.19,2.18,4.26,2.47,6.5.44,3.44-.06,7,.23,10.47.45,5.25,3.5,8.27,8.27,8.16,1.33,0,2.63-1.23,3.95-1.89-.88-1-1.82-1.93-2.63-3-1.53-2,9.83-1.59,2.77-3.83-2.75-.88,6.91-9.41-.44-11.8-2.81-.91-6-4.52-2.38-4.59,1,0,1.88-1.36,2.82-2.09-.88-.77-1.77-2.21-2.63-2.19-4.18.1-5.08-2.26-5-5.74C206.6,149,206.34,147.54,206.06,144.48Z"/><path class="cls-1" d="M46.28,58.56c-.9-1.74-1.54-3.68-2.75-5.16-2.83-3.49-6-6.71-8.92-10.12-3.23-3.75-5.87-7.47-12.26-5.5-4.69,1.45-8.58-2-10.73-6.36-2-4.14-.67-9.67,2.8-12.81s9.13-4.14,13-1.3c3.45,2.55,5.94,1.62,8.88-.25,2.11-1.34,4.3-2.56,6.5-3.73,2.84-1.5,5.12-3,5.77-6.78.57-3.3,3.59-4.74,7-3.87A5.71,5.71,0,0,1,60.16,9.4c-.4,3.44-2.87,6.27-6,5.2-6-2-9.77,1.46-14.18,3.8-4.12,2.19-6.59,4.44-7.49,10.14-.95,6,.77,9.18,4.3,12.78,2.56,2.61,5,5.39,7.4,8.13,2.19,2.45,3.95,4.86,8.2,4.25,3.61-.52,6.24,3.34,6,7.12a6.3,6.3,0,0,1-7.14,6C47.28,66.4,45,63.38,46.28,58.56Zm52.85,61.28c4,.11,6.2-2.16,6.77-5.92s-2.14-7.63-5.8-7.19c-4.61.55-6.55-2.19-8.95-4.89-3.43-3.85-7-7.64-10.34-11.53-.84-1-1.82-2.2-1.87-3.35-.24-5,3.49-10.24,8.37-12.2,1.39-.56,2.77-1.16,4.17-1.68,4.1-1.5,7.83-3.77,12.68-1.17,2.86,1.54,5.89-.5,6.91-3.9s-.24-6-3.46-7.35-6.34-.54-7.52,2.71-3.18,4.74-6.16,5.74C90.29,70.32,86.81,72,83.12,73a7,7,0,0,1-5.24-.83c-5.35-3.87-10.73-4.44-15.14-1.09a11.28,11.28,0,0,0-3.09,14c2.42,4.88,7.21,6.64,13.64,5.55a6.6,6.6,0,0,1,5.06,1.46c4.67,4.73,9.09,9.74,13.42,14.8a9.76,9.76,0,0,1,1.56,3.25C92.86,116.6,95.06,119.72,99.13,119.84ZM48.72,187c-1.45,2.8-2.53,5.89-4.42,8.36-3.14,4.07-6.89,7.66-10.22,11.6-2.08,2.46-3.9,3.83-7.57,2.61-4.72-1.57-9.52.87-12,5a11.43,11.43,0,0,0,1.22,13c3,3.54,8.66,5.43,12.61,2.64,4.77-3.36,8.13-1.53,12,.88,2.11,1.32,4.53,2.22,6.46,3.74a10.63,10.63,0,0,1,3.31,4.48c1.47,4.09,4.25,6.12,7.77,4.95,3.35-1.11,4.73-3.57,4.11-7-.65-3.63-3.88-5.27-8.1-4.29-2.9.67-17.37-6-18.64-8.64a2.84,2.84,0,0,1-.25-.95c-.85-7.08-2.32-14.14,5.13-19.27,3.06-2.11,5-5.74,7.81-8.35a8.82,8.82,0,0,1,5-2.16c4-.3,6.84-1.79,7.29-6s-1.55-6.52-6.29-7.15c1,5.42-3.45,4.23-6.14,5.34Zm69.15-62.54c-.7.69.56,4.65,2,5.77,1.17.93,4.91.64,5.68-.43,1.18-1.63,1.86-5.45.85-6.49-3-3.08-2.76-6.6-2.94-10.16-.28-5.48-.28-11-.6-16.46-.19-3.35.28-5.78,3.57-7.9,3.88-2.5,4.72-6.79,2.72-11.09a8.38,8.38,0,0,0-9.35-5.14c-4.74.68-7.22,3.67-7.73,8.43-.58,5.35-4.34,7.65-9.63,5.88-4-1.32-6.53.23-8,3.79a6,6,0,0,0,3.77,8.06c3.78,1,7-.26,7.67-4.24.82-4.63,4.13-6.07,7.71-6.35s6.42,3.79,6.52,8.34c.08,3.33,0,6.66,0,10C119.49,112.35,123.42,118.89,117.87,124.41ZM46.37,39.22c2.27.32,4.93-1.46,7.27-2.63,2.07-1,3.84-2.65,5.89-3.7,3.87-2,5.79,1.19,8.32,3.19,4.63,3.64,5.92,11.2,2.2,15.79-2.25,2.78-2.8,5.78.18,7.75,1.54,1,5,.86,6.55-.25,2.65-1.91,2.07-4.84,0-7.41-3.68-4.51-2.66-12.26,1.93-15.77C82.13,33.54,83,30,82,26s-4-6.75-7.89-6.36c-3,.31-6.87,2.11-8.58,4.51C61,30.54,58.3,31.7,51.46,28c-4.51-2.41-9.63.54-9.55,7.19C42.82,36.11,44.42,39,46.37,39.22ZM67.42,213.71c-5.88,3.88-9.73,3.89-13.88-1.45-2.39-3.08-5.41-3.93-8.74-1.66-3.14,2.14-3.66,5.27-1.68,8.3,2.14,3.28,5.35,3.7,8.75,1.73,5.86-3.4,10.18-2.16,13.4,3.85,1.91,3.55,5.11,6.06,8.89,5a14.33,14.33,0,0,0,7.62-6.08,7.3,7.3,0,0,0-2.54-9.78c-3.09-2-5.22-4-4.35-7.91.69-3.07,1.21-6.28,2.54-9.08s2-5.41-.68-7.05a7.33,7.33,0,0,0-6.24-.16c-2.78,1.5-2.44,4.27-.94,7,1.36,2.46,2.37,5.12,3.53,7.69C73.06,208.82,71.14,211.26,67.42,213.71Zm47.47-42.1c0,3.92,2.52,5.22,5.92,5.16s7.13-.78,6.36-5.07c-1.69-9.53,3.89-16,8.47-23,1.63-2.5,3.33-4,6.73-4,4.62,0,7.44-4.1,6.74-8.63a7.85,7.85,0,0,0-8.71-6.47c-4.28.62-7.6,5.06-5.88,9.28,1.59,3.9.11,6.27-1.9,9-1.77,2.41-3.11,5.2-5.12,7.37-1.72,1.84-4.08,4.21-6.24,4.29-5.88.24-7.11,3.19-6.37,7.35C114.89,168.94,114.88,170.27,114.89,171.61ZM135,92.86a10.61,10.61,0,0,0,1.92,8.42c3.91,4.61,4.2,6.57,1.07,11.88-1,1.75-.91,5.65.34,6.87s5.53,1.21,6.71,0,1.36-5.15.32-6.92c-3.22-5.47-2.93-7.1,1.31-12.19,1.67-2,2.26-5.93,1.59-8.52-.54-2.1-3.72-3.51-6.47-5.85C138.88,89.07,135.58,90.6,135,92.86Zm-57.61,75.8a44.88,44.88,0,0,0,0-6.46c-.68-4.67-4.76-3.69-7.75-4.15-2.68-.41-5,.28-5,3.79,0,4,.18,7.93.14,11.9s1.36,6.45,5.74,6.29c4.14-.15,7.16-1.5,7-6.4-.07-1.65,0-3.31,0-5Zm5.1-13.08a47.45,47.45,0,0,0,3.92-3.12c4.46-4.32,7.29-10.46,15.1-10.67,3.66-.09,5.19-4,4.23-7.71-.89-3.47-3.43-5.4-7.08-4.88-3.86.56-5.34,3.13-5.64,7a15,15,0,0,1-2.58,7.35c-2.71,3.71-6.09,6.93-9.19,10.36Zm3-106.15a7.15,7.15,0,0,0,14.29,0,7.15,7.15,0,1,0-14.29,0ZM7.1.5A6.9,6.9,0,0,0,.5,7.23a6.7,6.7,0,0,0,6.76,6.5A6.62,6.62,0,0,0,7.1.5Zm97.76,182.09c-3.7,3.35-7,3-11.24-.45-3-2.52-6.44-4.56-9.68-6.81l-1.34,1.95c1.69,1.2,3.46,2.27,5,3.6,2.76,2.34,5.39,4.83,8.07,7.25,1.94,1.76,3.64,4.32,5.9,5,1.44.43,4.69-1.55,5.36-3.17.86-2.1-.06-4.92-.21-7.43Zm-91.3,55.2c-.08-3.7-2.25-5.91-6.06-5.83s-6,2.31-6,6,2.41,5.63,6.09,5.91C11.33,243.48,13.64,241.56,13.56,237.79ZM124,141.6c-1.92-1.27-3.71-3.24-5.79-3.62-3-.53-5.61,1.63-4.9,4.56a8.23,8.23,0,0,0,5.17,5.08c1.49.34,3.68-2.36,5.56-3.7C124,143.14,124,142.37,124,141.6ZM28.86,1.37C27.72,3.23,25.45,5.3,25.75,6.9c.31,1.76,3,3.08,4.64,4.6,1.51-1.67,4.08-3.25,4.22-5S32.25,3,30.92,1.28Zm64,204.2c-.23-1.65-2.65-3-4.11-4.47-1.51,1.59-3.9,3-4.23,4.84-.24,1.35,2.2,3.17,4.44,6.07C90.91,209,93.05,207.1,92.84,205.57Zm17.62-40.36c-4.55-2-8.08-3.56-11.71-4.9-.31-.11-1.67,1.48-1.82,2.39a32.76,32.76,0,0,0-.09,5.29Zm-78.94,71c-1.56.37-2.73,2.44-4.06,3.77,1.26,1.25,2.5,3.46,3.8,3.49,1.5,0,3.06-1.84,5.85-3.74C34.35,237.91,32.68,236,31.52,236.23Z"/></g></g></svg>